HIERARCHY
ROOT Hips
{
	OFFSET 0.000000 0.862444 0.000000
	CHANNELS 6 Xposition Yposition Zposition Zrotation Yrotation Xrotation 
	JOINT LeftUpperLeg
	{
		OFFSET 0.056349 -0.048287 -0.000496
		CHANNELS 3 Zrotation Yrotation Xrotation
		JOINT LeftLowerLeg
		{
			OFFSET -0.006470 -0.344281 0.186042
			CHANNELS 3 Zrotation Yrotation Xrotation
			JOINT LeftFoot
			{
				OFFSET 0.022235 -0.405908 -0.136696
				CHANNELS 3 Zrotation Yrotation Xrotation
				End Site #name: L_Foot
				{
					OFFSET -0.027921 -0.051819 0.124893
				}
			}
		}
	}
	JOINT RightUpperLeg
	{
		OFFSET -0.052363 -0.053725 -0.017424
		CHANNELS 3 Zrotation Yrotation Xrotation
		JOINT RightLowerLeg
		{
			OFFSET -0.050426 -0.390788 -0.041645
			CHANNELS 3 Zrotation Yrotation Xrotation
			JOINT RightFoot
			{
				OFFSET 0.074547 -0.251639 -0.330655
				CHANNELS 3 Zrotation Yrotation Xrotation
				End Site #name: R_Foot
				{
					OFFSET -0.004435 -0.142018 -0.007805
				}
			}
		}
	}
	JOINT Spine
	{
		OFFSET 0.010227 0.174102 -0.035566
		CHANNELS 3 Zrotation Yrotation Xrotation
		JOINT Chest
		{
			OFFSET 0.010316 0.106210 0.056244
			CHANNELS 3 Zrotation Yrotation Xrotation
			JOINT UpperChest
			{
				OFFSET -0.000534 0.037944 0.015258
				CHANNELS 3 Zrotation Yrotation Xrotation
				JOINT Neck
				{
					OFFSET -0.005716 0.205626 0.048829
					CHANNELS 3 Zrotation Yrotation Xrotation
					End Site #name: Head
					{
						OFFSET 0.009907 0.087244 0.035103
					}
				}
				JOINT LeftShoulder
				{
					OFFSET 0.074174 0.097575 0.020461
					CHANNELS 3 Zrotation Yrotation Xrotation
					JOINT LeftUpperArm
					{
						OFFSET 0.127674 0.014332 -0.020453
						CHANNELS 3 Zrotation Yrotation Xrotation
						JOINT LeftLowerArm
						{
							OFFSET 0.055102 -0.197508 -0.121566
							CHANNELS 3 Zrotation Yrotation Xrotation
							End Site #name: L_Wrist
							{
								OFFSET -0.110671 -0.156253 0.192970
							}
						}
					}
				}
				JOINT RightShoulder
				{
					OFFSET -0.083492 0.104324 0.019162
					CHANNELS 3 Zrotation Yrotation Xrotation
					JOINT RightUpperArm
					{
						OFFSET -0.120088 0.008107 -0.002647
						CHANNELS 3 Zrotation Yrotation Xrotation
						JOINT RightLowerArm
						{
							OFFSET -0.022620 -0.247331 -0.014096
							CHANNELS 3 Zrotation Yrotation Xrotation
							End Site #name: R_Wrist
							{
								OFFSET -0.039090 -0.177487 0.203862
							}
						}
					}
				}
			}
		}
	}
}
MOTION
Frames: 9
Frame Time: 0.041667
-0.166653 0.879800 1.073519 -2.629895 8.176267 3.403515 11.155378 6.468554 -2.831597 -9.572611 2.249954 -6.822886 -1.168785 -7.194302 11.696641 -10.344741 2.400999 -35.328461 0.771654 -5.067011 -17.439673 -18.027708 -0.535626 -12.046414 -4.096502 -1.214643 47.649178 -3.671315 2.502344 18.498920 6.488532 3.841016 -10.265545 -21.752978 9.041402 3.610743 3.308263 -0.792199 0.594897 4.898244 -8.809924 -30.586932 0.497870 -7.024857 11.933158 -9.352993 43.791170 -0.453352 -30.867106 -6.223381 -42.982040 -2.384364 -7.056918 32.956177 
-0.172028 0.872915 1.082695 -2.109447 8.800310 5.168190 10.990188 6.768784 -5.489141 -9.995498 2.580944 -5.374035 -1.211761 -7.203748 11.470949 -11.951226 2.123588 -37.638701 2.332456 -6.183791 -15.338191 -19.393510 -0.710627 -12.800106 -4.698839 -0.914126 52.478554 -4.238803 2.777079 17.465784 7.269942 4.293840 -9.905419 -23.626192 9.936401 4.246876 2.849191 0.229795 0.435086 6.687215 -9.777417 -33.768481 0.315134 -6.669123 11.002085 -13.118703 48.124873 -2.143306 -38.574874 -8.922938 -43.154664 -2.565497 -7.405619 35.313963 
-0.175381 0.865387 1.091911 -1.558126 9.329662 7.000271 10.767905 7.015449 -8.031532 -10.498177 2.924540 -4.087912 -1.288941 -7.249566 11.158583 -13.796362 1.718145 -39.784361 4.008143 -7.535076 -13.418473 -20.875075 -0.906793 -13.520627 -5.219307 -0.633289 57.175283 -4.726947 2.991702 16.418769 7.821602 4.673118 -9.556758 -25.191206 10.797810 5.420107 2.367050 1.072526 0.279934 8.499096 -10.615396 -36.819637 0.172908 -6.122025 9.816475 -17.790294 51.813042 -4.556803 -46.245119 -11.189276 -41.835791 -2.909903 -7.803539 37.381481 
-0.176844 0.857870 1.100895 -0.973933 9.746045 8.758968 10.506830 7.180194 -10.229154 -11.055994 3.258766 -3.055727 -1.311693 -7.189675 10.825192 -15.783607 1.204934 -41.633316 5.645779 -8.973460 -11.768439 -22.256854 -1.109802 -14.207102 -5.650682 -0.402401 61.723100 -5.097509 3.135536 15.467922 8.113770 4.981168 -9.362246 -26.409718 11.624435 7.130553 1.947252 1.775913 0.142158 10.308866 -11.300608 -39.493095 -0.016949 -5.431468 8.322111 -22.933362 54.405647 -7.431172 -53.184674 -12.765496 -39.728822 -3.242138 -8.152328 39.200985 
-0.176789 0.851922 1.109395 -0.506627 10.026338 10.195883 10.219139 7.237418 -11.882497 -11.518848 3.514042 -2.388968 -1.255337 -7.020945 10.615298 -17.476911 0.720858 -42.928533 7.010089 -10.256632 -10.629243 -23.413885 -1.266778 -14.631156 -5.982849 -0.206280 65.511197 -5.324022 3.211671 14.781323 8.223494 5.215503 -9.303700 -27.233568 12.321725 8.935380 1.594440 2.387556 0.020510 11.887825 -11.797728 -41.571877 -0.228952 -4.765071 6.850613 -27.547918 55.883633 -10.102204 -58.544202 -13.575689 -37.533120 -3.488512 -8.393647 40.473409 
-0.175670 0.847473 1.117310 -0.101182 10.198317 11.368318 9.909929 7.212110 -13.137572 -11.894675 3.708590 -1.951213 -1.073074 -6.621658 10.421890 -19.005931 0.261686 -43.767657 8.157328 -11.386944 -9.865402 -24.320857 -1.383298 -14.893135 -6.152812 -0.198578 68.567287 -5.484037 3.259557 14.245741 8.167434 5.367475 -9.322140 -27.668475 12.839978 10.647447 1.221783 2.798347 -0.088168 13.256178 -12.156524 -43.113850 -0.473164 -4.158315 5.437839 -31.061960 56.509012 -12.125847 -62.386682 -13.921063 -35.714275 -3.775197 -8.617198 41.365777 
-0.173916 0.844649 1.124496 0.206546 10.283555 12.293147 9.628060 7.140484 -13.996771 -12.218852 3.850597 -1.738977 -0.897706 -6.247297 10.276784 -20.228418 -0.115305 -44.289363 9.075766 -12.317665 -9.374356 -25.004226 -1.466971 -15.053181 -6.248546 -0.254811 70.915505 -5.551740 3.261181 13.789877 8.076314 5.480722 -9.298633 -27.899364 13.220876 12.087979 0.920140 3.256637 -0.191070 14.363458 -12.405537 -44.192076 -0.851752 -3.768928 4.145654 -33.576767 56.822055 -13.576036 -65.131281 -13.990024 -34.212922 -4.010169 -8.784332 41.949356 
-0.171682 0.842971 1.130967 0.477711 10.319527 13.041278 9.365657 7.043541 -14.620025 -12.496488 3.963971 -1.610781 -0.673297 -5.791026 10.170512 -21.245764 -0.430464 -44.595294 9.769432 -13.032720 -9.081359 -25.457168 -1.517623 -15.128556 -6.313796 -0.319472 72.755406 -5.585936 3.244703 13.343467 7.954694 5.561519 -9.241578 -27.897802 13.425464 13.200750 0.662990 3.660785 -0.282061 15.384501 -12.602264 -44.983866 -1.218868 -3.470470 3.016954 -35.307777 56.872059 -14.537777 -67.036117 -13.926130 -33.044124 -4.269869 -8.941995 42.278059 
-0.169130 0.842316 1.136776 0.686287 10.332185 13.636655 9.179080 6.962860 -14.996758 -12.808011 4.057083 -1.662576 -0.444185 -5.331185 10.087976 -22.060617 -0.678365 -44.713535 10.288962 -13.574885 -8.939993 -25.820627 -1.551761 -15.153671 -6.368789 -0.354603 74.118042 -5.585892 3.211916 12.927845 7.894981 5.638198 -9.102606 -27.990182 13.646220 14.113915 0.501938 4.107688 -0.360651 16.088483 -12.730348 -45.544351 -1.636615 -3.270323 1.947420 -36.488307 56.913805 -15.200237 -68.383347 -13.775227 -32.074322 -4.483135 -9.064658 42.473495 
